<svg width="32" height="32" xmlns="http://www.w3.org/2000/svg">

 <g>
  <title>background</title>
  <rect fill="none" id="canvas_background" height="402" width="582" y="-1" x="-1"/>
 </g>
 <g>
  <title>Layer 1</title>
  <path id="svg_3" fill="#00ff7f" d="m1.911,16.179001c-1.084,0.567999 -1.039,1.4 0.098,1.851999l3.364,1.330999c1.137,0.449001 2.856,0.204 3.821,-0.549999l14.612,-11.523c0.961,-0.757 1.064001,-0.645 0.229,0.249l-11.552,12.364c-0.837,0.892 -0.59,1.983999 0.55,2.424999l0.394,0.154001c1.14,0.439999 3,1.181999 4.132,1.641998l3.732,1.521c1.132999,0.460001 2.059999,0.842001 2.062,0.849001c0.000999,0.007 0.005999,0.028 0.011999,0.030001s0.273001,-0.962 0.594,-2.141001l5.688,-20.908c0.321001,-1.18 -0.302,-1.681 -1.385,-1.113l-26.350999,13.818001z"/>
  <path id="svg_5" fill="#56ff56" d="m11.146,29.864c-0.066999,0.198999 2.301,-3.429001 2.301,-3.429001c0.669001,-1.021999 0.290001,-2.240999 -0.842,-2.702999l-2.582,-1.058001c-1.132,-0.462999 -1.674,0.08 -1.205,1.212c0,0.000999 2.396,5.774 2.328,5.978001z"/>
 </g>
</svg>